<svg version="1.2" xmlns="http://www.w3.org/2000/svg" viewBox="0 0 460 460" width="460" height="460">
  <path fill-rule="evenodd" fill="#335dd2" d="m229.8 458.9c-126.8 0-229.3-102.5-229.3-229.3 0-126.8 102.5-229.3 229.3-229.3 126.8 0 229.3 102.5 229.3 229.3 0 126.8-102.5 229.3-229.3 229.3z" />
  <path fill="#fff" d="m230.1 78.7l-27.8 16-75.7 43.8-27.8 16v151.5l27.8 16 76.4 43.8 27.8 16 27.8-16 75-43.8 27.8-16v-151.5l-27.8-16-75.7-43.8zm-75.7 195.3v-87.6l75.7-43.8 75.7 43.8v87.6l-75.7 43.8z" />
</svg>
