<svg version="1.2" xmlns="http://www.w3.org/2000/svg" viewBox="0 0 500 500" width="500" height="500">
  <rect width="100%" height="100%" fill="#fff"/>
  <path fill-rule="evenodd" fill="#fd627a" d="m447.1 256.9l-94.7 155.8c-2 3.3-5.6 5.3-9.4 5.3h-189.3c-3.9 0-7.4-2-9.4-5.3l-94.7-155.8c-2.1-3.5-2.1-7.9 0-11.4l94.7-155.8c2-3.3 5.5-5.3 9.4-5.3h189.3c3.8 0 7.4 2 9.4 5.3l94.7 155.8c2.1 3.5 2.1 7.9 0 11.4zm-273.9 139.1h150.1l-25-40.9h-100.5zm150.2-289.6h-150.2l24.5 41h100.5zm24.5 144.8l-49.7-81.8h-100.5l-49.7 81.8 49.7 81.9h100.5zm-269.3-11.1h50.3l49.7-81.8-25-41.7zm75.1 145.6l25.1-41.6-49.9-82h-50.3zm264.4-123.7h-51.1l-49.7 81.9 25.7 41.9zm0-22l-75.1-123.7-25.8 41.9 49.7 81.8z" />
  <path fill-rule="evenodd" fill="#fd627a" d="m304.8 268.4c-5.1-3.3-11.9-1.8-15.1 3.4l-19.5 30.7c-3.3 5.1-1.7 11.9 3.4 15.2 1.8 1.1 3.9 1.7 5.9 1.7 3.6 0 7.2-1.8 9.3-5.1l19.5-30.8c3.2-5.1 1.7-11.9-3.5-15.1z" />
  <path fill-rule="evenodd" fill="#fd627a" d="m320.8 240.1c-5.2-3.1-11.9-1.4-15 3.9l-1.4 2.4c-3.1 5.2-1.4 12 3.9 15.1 1.7 1 3.6 1.5 5.5 1.5 3.8 0 7.5-2 9.5-5.4l1.5-2.5c3-5.2 1.3-12-4-15z" />
</svg>
